<svg width="446" height="380" viewBox="0 0 446 380" fill="none" xmlns="http://www.w3.org/2000/svg">
<g clip-path="url(#clip0)">
<path opacity="0.18" d="M372.436 41.5691C368.142 33.9423 362.638 27.063 356.14 21.1995C340.795 7.61972 320.005 1.45451 299.54 0.245918C279.075 -0.962679 258.651 2.36436 238.431 5.67781C227.133 7.61972 215.631 9.49372 205.473 14.8577C189.055 23.5759 178.938 39.8988 171.171 56.1809C163.403 72.463 158.487 90.524 140.304 98.278C128.856 103.18 115.304 104.783 103.381 108.925C80.2952 116.964 57.875 127.936 39.0399 143.757C20.7616 159.102 10.3595 190.783 4.60171 213.339C-1.1561 235.895 -2.06594 260.298 5.1449 282.596C16.7556 318.46 48.3285 345.185 83.2963 359.253C118.264 373.322 156.627 376.337 194.27 377.545C226.861 378.591 260.892 380.682 293.402 378.184C306.194 377.206 318.008 376.052 331.086 375.902C346.611 375.938 362.06 373.738 376.958 369.37C400.763 362.051 422.844 347.113 434.916 325.386C451.212 295.918 446.989 259.116 435.921 227.286C424.854 195.455 407.621 165.864 398.496 133.422C392.996 113.84 390.538 93.5116 385.242 73.8617C382.377 62.5924 378.073 51.7389 372.436 41.5691Z" fill="#0C326F"/>
<path opacity="0.18" d="M148.847 339.765C144.366 341.707 139.64 346.148 141.433 350.697C161.096 357.853 182.539 357.853 203.465 357.758C254.186 357.527 304.906 357.31 355.558 356.848C359.782 356.848 364.195 356.726 367.902 354.703C371.61 352.679 374.271 348.062 372.655 344.165C371.134 340.525 366.816 339.086 362.973 338.163C350.287 335.105 337.377 333.07 324.366 332.079C313.801 331.264 301.864 330.544 295.006 322.464C292.413 319.409 290.864 315.566 288.216 312.578C272.369 294.721 235.092 302.679 221.567 317.888C200.967 341.109 174.513 328.616 148.847 339.765Z" fill="#0C326F"/>
<path d="M198.427 201.007C195.412 209.63 192.805 218.552 192.751 227.691C192.696 236.831 195.467 246.296 201.917 252.76C211.355 262.265 226.048 263.311 239.397 263.841L257.051 264.547C263.99 264.818 270.997 265.09 277.801 263.705C284.604 262.32 291.258 259.047 295.454 253.479C298.154 249.529 299.961 245.039 300.75 240.321C305.531 217.113 297.777 192.384 283.205 173.698C278.969 168.023 273.798 163.11 267.915 159.168C258.11 152.935 228.927 143.592 219.34 154.035C214.981 158.774 212.224 168.375 209.467 174.187C205.314 182.925 201.628 191.878 198.427 201.007Z" fill="white"/>
<path d="M207.485 196.064C205.04 203.044 202.936 210.255 202.895 217.656C202.854 225.057 205.095 232.702 210.309 237.931C217.941 245.576 229.837 246.459 240.619 246.893L254.919 247.464C260.517 247.907 266.148 247.674 271.69 246.771C277.19 245.644 282.554 243.009 285.921 238.501C288.114 235.314 289.579 231.684 290.213 227.868C294.083 209.087 287.809 189.098 276.022 173.984C272.597 169.388 268.413 165.411 263.651 162.224C255.72 157.185 232.118 149.635 224.364 158.068C220.847 161.911 218.607 169.679 216.393 174.364C213.039 181.433 210.066 188.677 207.485 196.064Z" fill="url(#paint0_linear)"/>
<path d="M224.555 319.857C223.197 322.22 221.689 324.488 220.399 326.864C218.43 330.558 217.072 334.917 218.376 338.882C218.558 339.573 218.93 340.198 219.449 340.688C220.142 341.177 220.953 341.472 221.798 341.544C224.543 341.974 227.316 342.201 230.095 342.223C233.897 342.223 237.998 341.775 240.823 339.222C246.486 334.075 246.106 321.405 242.86 315.186C242.546 314.394 242.004 313.714 241.303 313.23C240.602 312.747 239.773 312.482 238.922 312.47C236.356 311.971 233.732 311.829 231.127 312.049C228.208 312.375 227.433 313.081 226.415 315.865C225.901 317.243 225.279 318.578 224.555 319.857Z" fill="#0C326F"/>
<path d="M232.01 320.4C232.691 320.522 233.382 320.59 234.074 320.604C236.192 320.699 238.596 320.685 240.103 319.178C241.611 317.671 241.638 315.457 241.638 313.407V305.449C241.638 300.194 236.722 300.913 232.865 301.565C231.969 301.671 231.112 301.993 230.367 302.502C229.009 303.575 228.859 305.53 228.805 307.242L228.533 315.62C228.414 316.624 228.564 317.641 228.968 318.567C229.304 319.082 229.752 319.515 230.279 319.833C230.805 320.15 231.397 320.344 232.01 320.4Z" fill="#FDBAAC"/>
<path d="M274.243 319.857C275.601 322.22 277.108 324.488 278.317 326.864C280.299 330.558 281.657 334.917 280.34 338.882C280.158 339.573 279.786 340.198 279.267 340.688C278.576 341.181 277.764 341.477 276.918 341.544C274.177 341.973 271.408 342.2 268.634 342.223C264.832 342.223 260.717 341.775 257.906 339.222C252.23 334.075 252.61 321.405 255.856 315.186C256.128 314.598 256.506 314.064 256.969 313.61C257.788 312.982 258.767 312.596 259.794 312.497C262.365 311.998 264.993 311.856 267.602 312.076C270.508 312.402 271.282 313.108 272.301 315.892C272.837 317.266 273.486 318.592 274.243 319.857Z" fill="#0C326F"/>
<path d="M266.788 320.4C266.106 320.521 265.416 320.589 264.723 320.604C262.591 320.699 260.201 320.685 258.694 319.178C257.187 317.671 257.146 315.457 257.146 313.407V305.449C257.146 300.194 262.075 300.913 265.918 301.565C266.82 301.669 267.682 301.99 268.431 302.502C269.789 303.575 269.924 305.53 269.979 307.242L270.25 315.62C270.374 316.622 270.229 317.64 269.829 318.567C269.494 319.082 269.046 319.515 268.519 319.833C267.992 320.15 267.4 320.344 266.788 320.4Z" fill="#FDBAAC"/>
<path d="M263.04 114.233C263.04 114.233 279.607 121.403 281.549 123.032C283.287 124.486 278.575 223.944 278.208 228.805C277.841 233.667 251.334 234.441 239.873 232.254C232.225 230.697 224.742 228.423 217.52 225.464C217.52 225.464 213.894 122.734 216.162 120.9C218.43 119.067 240.334 112.291 240.334 112.291L263.04 114.233Z" fill="#0C326F"/>
<path d="M208.544 236.899C207.308 241.434 206.561 246.54 208.924 250.587C210.499 253.065 212.855 254.948 215.619 255.937C218.367 256.906 221.229 257.513 224.134 257.743C241.928 259.774 259.937 258.796 277.407 254.851C279.844 254.518 282.132 253.485 283.993 251.877C285.537 249.991 286.432 247.658 286.546 245.223C287.581 236.593 285.795 227.861 281.454 220.331C281.152 219.714 280.681 219.196 280.096 218.837C279.533 218.588 278.916 218.486 278.303 218.539L233.096 218.688C229.815 218.77 226.531 218.647 223.264 218.321C220.725 218.023 217.833 216.407 216.013 218.579C212.143 223.115 210.065 231.249 208.544 236.899Z" fill="#473F47"/>
<path d="M208.544 236.899C207.308 241.434 206.561 246.54 208.924 250.587C210.499 253.065 212.855 254.948 215.619 255.937C218.367 256.906 221.229 257.513 224.134 257.743C241.928 259.774 259.937 258.796 277.407 254.851C279.844 254.518 282.132 253.485 283.993 251.877C285.537 249.991 286.432 247.658 286.546 245.223C287.581 236.593 285.795 227.861 281.454 220.331C281.152 219.714 280.681 219.196 280.096 218.837C279.533 218.588 278.916 218.486 278.303 218.539L233.096 218.688C229.815 218.77 226.531 218.647 223.264 218.321C220.725 218.023 217.833 216.407 216.013 218.579C212.143 223.115 210.065 231.249 208.544 236.899Z" fill="url(#paint1_linear)"/>
<path d="M262.415 308.409L265.063 308.667C273.075 309.469 276.307 302.638 277.108 294.626C277.298 292.956 277.692 291.272 277.977 289.615L283.26 258.843L285.704 244.585C285.949 243.145 286.207 241.719 286.437 240.28C287.144 236.097 285.881 232.064 285.079 227.868C284.604 225.329 283.993 222.599 282.038 220.915C280.082 219.231 277.38 219.082 274.854 218.96C268.145 218.661 261.342 218.349 254.81 219.91C254.408 219.962 254.038 220.154 253.765 220.453C253.582 220.799 253.519 221.196 253.588 221.581C254.063 227.963 255.082 234.291 254.946 240.674L253.792 291.951C252.977 299.922 254.403 307.608 262.415 308.409Z" fill="#473F47"/>
<path d="M237.36 310.446L234.644 310.704C226.646 311.506 223.4 304.675 222.599 296.663L213.976 246.418C213.283 242.425 212.699 238.582 212.401 234.522C212.069 231.777 212.161 228.997 212.672 226.279C212.937 224.922 213.508 223.643 214.34 222.54C215.173 221.436 216.247 220.537 217.48 219.91C218.782 219.415 220.16 219.149 221.553 219.123C226.14 218.823 230.745 219.042 235.283 219.774C236.913 219.913 238.48 220.469 239.832 221.39C241.169 222.691 242.111 224.343 242.548 226.157C243.906 230.068 245.658 234.386 245.264 238.569C244.939 241.241 244.785 243.93 244.802 246.622L245.196 264.411L245.861 293.512C245.848 293.675 245.848 293.839 245.861 294.001C246.744 301.918 245.318 309.604 237.36 310.446Z" fill="#473F47"/>
<path d="M376.716 205.584V208.517C376.717 209.08 376.608 209.637 376.394 210.158C376.18 210.679 375.865 211.152 375.467 211.55C375.07 211.949 374.598 212.265 374.078 212.481C373.558 212.697 373.001 212.808 372.438 212.808H121.77C121.207 212.808 120.649 212.697 120.129 212.481C119.61 212.265 119.137 211.949 118.74 211.55C118.343 211.152 118.028 210.679 117.814 210.158C117.599 209.637 117.49 209.08 117.492 208.517V205.584C117.492 204.449 117.943 203.361 118.745 202.559C119.547 201.757 120.635 201.306 121.77 201.306H372.438C373.572 201.306 374.66 201.757 375.463 202.559C376.265 203.361 376.716 204.449 376.716 205.584Z" fill="#473F47"/>
<path d="M298.741 155.841C298.741 155.841 309.496 178.248 308.342 184.359C307.54 188.663 299.297 192.438 296.038 194.394C292.779 196.349 289.506 198.753 286.125 200.084C282.744 201.415 278.887 200.899 275.451 200.79L257.798 200.22C256.956 200.22 255.829 199.907 255.829 199.052C255.829 198.549 256.263 198.156 256.684 197.87C258.005 196.95 259.537 196.38 261.138 196.214C264.953 195.972 268.721 195.251 272.355 194.068L292.671 180.081L287.768 170.996L298.741 155.841Z" fill="#FDBAAC"/>
<path d="M217.126 120.411C213.596 121.946 211.179 124.064 210.337 127.69C208.979 133.299 206.195 137.997 203.547 143.09C201.966 146.182 200.605 149.381 199.473 152.663C199.033 153.661 198.874 154.76 199.011 155.841C199.246 156.659 199.643 157.421 200.179 158.082C203.32 162.463 206.589 166.75 209.984 170.942C212.033 169.994 213.992 168.862 215.836 167.56C216.556 166.42 216.271 163.677 216.38 162.346C216.579 159.63 216.76 156.882 216.923 154.103L217.126 120.411Z" fill="#0C326F"/>
<path d="M256.997 101.767C257.128 102.412 257.215 103.065 257.255 103.722C257.431 106.357 257.16 109.059 257.947 111.571C258.252 112.476 258.662 113.342 259.169 114.151C261.057 117.139 258.721 122.014 257.064 124.73C254.96 128.166 251.633 131.52 247.409 131.927C242.1 132.402 239.791 126.495 238.813 122.299C238.243 119.882 237.754 118.144 238.664 115.754C239.574 113.364 240.986 111.082 241.706 108.556C242.31 105.646 242.655 102.688 242.738 99.716C242.774 98.9246 242.982 98.1505 243.349 97.4482C243.66 96.9889 244.061 96.5978 244.528 96.2989C244.995 96.0001 245.518 95.7996 246.065 95.71C247.136 95.522 248.23 95.49 249.31 95.6149C250.982 95.611 252.629 96.0216 254.104 96.8099C254.89 97.4035 255.551 98.1473 256.047 98.9982C256.544 99.8491 256.867 100.79 256.997 101.767Z" fill="#FDBAAC"/>
<path d="M242.263 106.234C242.263 106.234 244.422 119.746 250.166 117.315C255.91 114.885 257.309 107.131 257.309 107.131L242.263 106.234Z" fill="#DEA095"/>
<path d="M259.332 114.056C259.332 114.056 254.253 129.7 248.903 131.791C248.903 131.791 247.477 132.728 251.687 134.765C255.897 136.802 266 123.806 263.61 115.17C263.339 114.065 262.788 113.049 262.01 112.219C261.232 111.389 260.254 110.773 259.169 110.43L259.332 114.056Z" fill="white"/>
<path d="M239.221 112.535C239.221 112.535 238.447 123.779 243.607 131.017C243.607 131.017 241.964 134.032 240.361 134.181C238.759 134.331 233.911 125.097 234.929 117.763C235.405 113.54 238.311 111.476 239.221 112.535Z" fill="white"/>
<path d="M234.753 76.0873C234.753 76.0873 235.025 96.9865 237.129 102.432C239.234 107.877 244.462 112.25 249.243 111.816C254.023 111.381 260.867 106.737 263.42 99.2679C265.973 91.7991 265.973 74.0775 264.954 71.7554C263.936 69.4332 258.45 62.3174 245.793 64.626C237.089 66.2148 234.468 72.8961 234.753 76.0873Z" fill="#FDBAAC"/>
<path d="M299.148 145.004C300.913 147.503 302.163 149.309 302.462 149.73C302.921 150.302 303.267 150.957 303.48 151.659C303.559 152.302 303.505 152.955 303.32 153.577C303.136 154.198 302.825 154.775 302.407 155.271C300.52 157.987 297.736 159.834 295.305 162.061C292.569 164.769 290.116 167.749 287.986 170.955C286.337 169.778 284.833 168.411 283.504 166.881C282.23 165.916 281.233 164.632 280.614 163.159C279.994 161.685 279.773 160.075 279.973 158.489L279.729 140.971L279.593 132.212C279.593 130.705 277.651 123.888 278.588 122.707C280.815 119.923 293.037 136.476 299.148 145.004Z" fill="#0C326F"/>
<path d="M232.105 83.8277C231.95 83.7805 231.785 83.7805 231.63 83.8277C231.479 83.9251 231.357 84.0611 231.277 84.2215C230.725 85.2029 230.537 86.3474 230.747 87.4535C230.976 88.3639 231.323 89.2405 231.779 90.0608C232.243 91.3933 233.071 92.5692 234.169 93.4558C234.389 93.614 234.66 93.6864 234.929 93.6595C235.126 93.6252 235.306 93.5302 235.446 93.3879C236.15 92.5555 236.518 91.49 236.478 90.4003C236.771 88.878 236.49 87.301 235.69 85.9733C235.288 85.373 234.758 84.8693 234.138 84.4983C233.518 84.1273 232.824 83.8983 232.105 83.8277Z" fill="#FDBAAC"/>
<path d="M267.725 83.4882C267.881 83.4544 268.043 83.4544 268.2 83.4882C268.348 83.5888 268.469 83.724 268.553 83.8821C269.098 84.8707 269.285 86.017 269.082 87.1276C268.837 88.0325 268.491 88.9071 268.05 89.7349C267.584 91.0627 266.757 92.2339 265.66 93.1163C265.437 93.2802 265.162 93.3574 264.886 93.3335C264.697 93.2901 264.524 93.1962 264.384 93.0619C263.682 92.2283 263.314 91.1637 263.352 90.0744C263.049 88.5522 263.33 86.9718 264.14 85.6474C264.54 85.0446 265.069 84.5382 265.689 84.1648C266.309 83.7914 267.004 83.5603 267.725 83.4882Z" fill="#FDBAAC"/>
<path d="M231.168 74.1589C230.733 71.443 230.638 68.3061 232.526 66.3098C232.92 65.8889 233.395 65.5494 233.802 65.142C234.21 64.7346 234.834 63.9062 235.364 63.2816C236.943 61.5719 238.865 60.2134 241.003 59.294C243.141 58.3746 245.449 57.9149 247.776 57.9447C252.419 58.038 257.012 58.9244 261.356 60.5656C263.8 61.3623 266.226 62.2269 268.634 63.1593C269.57 63.4541 270.435 63.9396 271.174 64.5852C271.697 65.1641 272.049 65.8771 272.19 66.6444C272.332 67.4118 272.257 68.2033 271.975 68.9307C271.568 70.085 270.726 71.0628 270.386 72.2306C270.183 73.153 270.101 74.098 270.142 75.0416C270.056 77.552 269.396 80.0094 268.213 82.2253C267.56 83.6355 266.47 84.7975 265.104 85.5388C265.211 82.1459 264.752 78.7588 263.746 75.5169C260.867 77.8387 257.366 79.2562 253.683 79.5908C250.016 79.9062 246.322 79.4861 242.819 78.3551C241.964 77.9865 241.021 77.8733 240.103 78.0292C239.221 78.2736 238.515 79.3871 239.017 80.1204C238.844 80.0106 238.652 79.9361 238.45 79.9012C238.248 79.8664 238.042 79.8718 237.842 79.9173C237.643 79.9627 237.454 80.0473 237.287 80.1661C237.121 80.2849 236.979 80.4355 236.871 80.6093C236.475 81.3367 236.282 82.1579 236.315 82.9858L236.084 88.1732C232.974 84.5203 231.928 78.8983 231.168 74.1589Z" fill="#FC682D"/>
<path d="M198.984 155.841C196.757 160.472 194.706 165.211 192.887 170.018C191.522 173.353 190.441 176.796 189.655 180.312C189.369 181.67 188.704 183.53 189.206 184.902C189.98 187.007 193.172 188.65 194.964 189.736C200.677 193.236 206.625 196.335 212.767 199.011C215.148 200.151 217.668 200.973 220.263 201.455C222.299 201.705 224.354 201.764 226.401 201.632L238.189 201.225C239.261 201.225 240.66 200.858 240.755 199.785C240.755 199.038 240.117 198.427 239.479 198.033C237.376 196.703 235.088 195.691 232.689 195.032C230.339 194.394 227.433 194.828 225.22 194.041C222.721 193.158 219.937 190.361 217.724 188.826L205.054 180.081L209.956 170.996L198.984 155.841Z" fill="#FDBAAC"/>
<path d="M280.951 196.526H214.886L209.087 152.012L285.636 153.071L280.951 196.526Z" fill="#0C326F"/>
<path d="M138.771 201.306L136.87 212.808L114.925 347.926C114.832 348.792 114.451 349.602 113.843 350.225C113.234 350.848 112.434 351.248 111.571 351.362C110.023 351.362 109.018 349.814 109.33 347.926L131.275 212.808L133.136 201.306H138.771Z" fill="#473F47"/>
<path d="M357.446 201.306L359.306 212.808L381.305 347.926C381.399 348.792 381.78 349.602 382.388 350.225C382.996 350.848 383.796 351.248 384.66 351.362C386.208 351.362 387.213 349.814 386.9 347.926L364.955 212.808L363.095 201.306H357.446Z" fill="#473F47"/>
<path d="M280.951 196.512H214.56V201.36H280.951V196.512Z" fill="#0C326F"/>
<path d="M280.951 196.512H214.56V201.36H280.951V196.512Z" fill="url(#paint2_linear)"/>
<path d="M163.174 201.306H130.379C131.573 197.91 133.792 194.969 136.729 192.889C139.667 190.808 143.177 189.691 146.777 189.691C150.376 189.691 153.887 190.808 156.824 192.889C159.761 194.969 161.98 197.91 163.174 201.306Z" fill="#0C326F"/>
<path d="M128.878 139.03C128.435 137.731 127.023 137.037 125.724 137.48C124.425 137.923 123.731 139.335 124.174 140.634L141.82 192.38C142.263 193.679 143.675 194.373 144.974 193.93C146.273 193.487 146.967 192.075 146.524 190.776L128.878 139.03Z" fill="#0C326F"/>
<path d="M125.805 137.407C124.496 137.818 123.768 139.213 124.179 140.523C124.591 141.832 125.985 142.56 127.295 142.149L179.454 125.763C180.763 125.352 181.491 123.957 181.08 122.647C180.668 121.338 179.273 120.61 177.964 121.021L125.805 137.407Z" fill="#0C326F"/>
<path d="M163.174 201.306H130.379C131.573 197.91 133.792 194.969 136.729 192.889C139.667 190.808 143.177 189.691 146.777 189.691C150.376 189.691 153.887 190.808 156.824 192.889C159.761 194.969 161.98 197.91 163.174 201.306Z" fill="url(#paint3_linear)"/>
<path d="M128.878 139.03C128.435 137.731 127.023 137.037 125.724 137.48C124.425 137.923 123.731 139.335 124.174 140.634L141.82 192.38C142.263 193.679 143.675 194.373 144.974 193.93C146.273 193.487 146.967 192.075 146.524 190.776L128.878 139.03Z" fill="url(#paint4_linear)"/>
<path d="M125.805 137.407C124.496 137.818 123.768 139.213 124.179 140.523C124.591 141.832 125.985 142.56 127.295 142.149L179.454 125.763C180.763 125.352 181.491 123.957 181.08 122.647C180.668 121.338 179.273 120.61 177.964 121.021L125.805 137.407Z" fill="url(#paint5_linear)"/>
<path d="M200.07 127.636C195.861 133.665 190.877 137.522 188.745 136.476C188.649 136.426 188.558 136.366 188.473 136.3L188.188 136.123C181.969 131.764 176.224 120.235 180.583 114.002C184.942 107.769 197.748 109.195 203.968 113.554L204.239 113.757C204.331 113.813 204.417 113.877 204.497 113.948C206.208 115.591 204.294 121.593 200.07 127.636Z" fill="#0C326F"/>
<path d="M200.07 127.636C195.861 133.665 190.877 137.522 188.745 136.476L188.555 136.368C188.521 136.354 188.493 136.33 188.473 136.3C186.586 134.792 188.473 128.695 192.792 122.544C197.11 116.392 202.175 112.508 204.239 113.757H204.334L204.497 113.893C206.208 115.591 204.294 121.593 200.07 127.636Z" fill="#0C326F"/>
<path d="M200.07 127.636C195.861 133.665 190.877 137.522 188.745 136.476L188.555 136.368C188.521 136.354 188.493 136.33 188.473 136.3C186.586 134.792 188.473 128.695 192.792 122.544C197.11 116.392 202.175 112.508 204.239 113.757H204.334L204.497 113.893C206.208 115.591 204.294 121.593 200.07 127.636Z" fill="white"/>
<path d="M340.172 155.828H332.215C330.4 155.828 328.928 157.299 328.928 159.114V198.386C328.928 200.201 330.4 201.673 332.215 201.673H340.172C341.987 201.673 343.459 200.201 343.459 198.386V159.114C343.459 157.299 341.987 155.828 340.172 155.828Z" fill="#0C326F"/>
<path d="M354.276 155.611L346.337 156.157C344.527 156.282 343.16 157.851 343.285 159.662L345.983 198.842C346.108 200.652 347.677 202.019 349.487 201.894L357.426 201.347C359.237 201.223 360.604 199.654 360.479 197.843L357.781 158.663C357.656 156.853 356.087 155.486 354.276 155.611Z" fill="#0C326F"/>
<path d="M281.019 196.526H214.954L209.155 152.012L285.704 153.071L281.019 196.526Z" fill="url(#paint6_linear)"/>
<path d="M212.048 149.812L209.155 152.012L285.704 153.071L283.07 150.491L212.048 149.812Z" fill="url(#paint7_linear)"/>
<path d="M351.498 76.549C351.099 81.4997 348.997 86.1593 345.55 89.7349C342.454 92.7878 340.252 96.629 339.181 100.843C338.882 102.133 338.719 103.464 338.489 104.917H319.477C319.341 103.953 319.246 102.989 319.056 102.052C318.255 97.9773 316.321 94.2116 313.475 91.188C310.959 88.6259 308.978 85.5883 307.649 82.2525C306.519 79.1136 306.092 75.765 306.398 72.443C306.704 69.121 307.735 65.9066 309.418 63.0266C311.102 60.1465 313.397 57.671 316.141 55.7746C318.886 53.8782 322.013 52.6072 325.303 52.0512C325.914 51.9561 326.511 51.8882 327.095 51.8339C330.399 51.5588 333.724 52.012 336.834 53.1616C339.944 54.3112 342.764 56.1292 345.095 58.4873C347.425 60.8453 349.211 63.6861 350.324 66.8093C351.437 69.9324 351.852 73.2618 351.539 76.5626L351.498 76.549Z" fill="white"/>
<path d="M347.777 76.549C347.389 81.4997 345.291 86.1612 341.843 89.7349C338.743 92.787 336.536 96.628 335.46 100.843C335.162 102.133 335.012 103.464 334.768 104.917H319.491C319.355 103.953 319.26 102.989 319.07 102.052C318.269 97.9772 316.334 94.2115 313.488 91.1879C310.972 88.6259 308.992 85.5883 307.663 82.2525C306.533 79.1135 306.106 75.7649 306.412 72.443C306.718 69.121 307.749 65.9066 309.432 63.0266C311.115 60.1465 313.41 57.671 316.155 55.7746C318.9 53.8782 322.027 52.6071 325.316 52.0511C325.927 51.9561 326.525 51.8882 327.109 51.8339C330.099 52.0793 333.01 52.9162 335.674 54.296C338.338 55.6758 340.701 57.571 342.626 59.8716C344.552 62.1722 346.001 64.8323 346.89 67.6976C347.779 70.5629 348.089 73.5762 347.804 76.5626L347.777 76.549Z" fill="url(#paint8_linear)"/>
<path d="M338.923 104.876H320.074C318.709 104.876 317.603 105.983 317.603 107.348V107.361C317.603 108.726 318.709 109.833 320.074 109.833H338.923C340.288 109.833 341.395 108.726 341.395 107.361V107.348C341.395 105.983 340.288 104.876 338.923 104.876Z" fill="#0C326F"/>
<path d="M337.484 109.032H320.645C319.422 109.032 318.431 110.023 318.431 111.245C318.431 112.468 319.422 113.459 320.645 113.459H337.484C338.706 113.459 339.697 112.468 339.697 111.245C339.697 110.023 338.706 109.032 337.484 109.032Z" fill="#0C326F"/>
<path d="M336.384 112.657H321.758C320.701 112.657 319.844 113.515 319.844 114.572V114.586C319.844 115.643 320.701 116.501 321.758 116.501H336.384C337.441 116.501 338.298 115.643 338.298 114.586V114.572C338.298 113.515 337.441 112.657 336.384 112.657Z" fill="#0C326F"/>
<path d="M338.923 104.876H320.074C318.709 104.876 317.603 105.983 317.603 107.348V107.361C317.603 108.726 318.709 109.833 320.074 109.833H338.923C340.288 109.833 341.395 108.726 341.395 107.361V107.348C341.395 105.983 340.288 104.876 338.923 104.876Z" fill="url(#paint9_linear)"/>
<path d="M337.484 109.032H320.645C319.422 109.032 318.431 110.023 318.431 111.245C318.431 112.468 319.422 113.459 320.645 113.459H337.484C338.706 113.459 339.697 112.468 339.697 111.245C339.697 110.023 338.706 109.032 337.484 109.032Z" fill="url(#paint10_linear)"/>
<path d="M336.384 112.657H321.758C320.701 112.657 319.844 113.515 319.844 114.572V114.586C319.844 115.643 320.701 116.501 321.758 116.501H336.384C337.441 116.501 338.298 115.643 338.298 114.586V114.572C338.298 113.515 337.441 112.657 336.384 112.657Z" fill="url(#paint11_linear)"/>
<path d="M324.271 104.808C324.125 101.335 323.67 97.8809 322.913 94.4878C322.332 91.671 321.911 88.8238 321.65 85.9597C321.351 81.6278 322.206 78.5995 324.271 76.6983C324.627 76.3191 325.11 76.0826 325.629 76.0329C325.908 76.0305 326.185 76.0832 326.443 76.1881C326.702 76.2929 326.937 76.4479 327.136 76.644C327.204 76.5625 327.258 76.4811 327.326 76.4132C327.676 75.97 328.148 75.6395 328.684 75.4626C328.956 75.3836 329.241 75.3621 329.522 75.3995C329.802 75.4369 330.072 75.5324 330.314 75.6799C330.663 75.8843 330.964 76.1623 331.196 76.4946C331.481 76.3122 331.8 76.1882 332.133 76.1299C332.466 76.0716 332.808 76.0802 333.138 76.1552C334.374 76.4675 335.229 77.6353 335.596 79.5229C336.479 84.0586 335.515 88.6349 334.578 93.1027C333.594 96.8307 333.168 100.684 333.315 104.537L331.957 104.659C331.793 100.674 332.228 96.6871 333.247 92.8311C334.197 88.3362 335.094 84.0993 334.265 79.8352C334.116 79.0748 333.736 77.7576 332.812 77.5267C332.481 77.4666 332.139 77.5398 331.862 77.7304C331.957 77.9687 332.034 78.2138 332.093 78.4637C332.416 79.7973 332.575 81.1654 332.568 82.5376C332.58 82.7529 332.547 82.9684 332.469 83.1698C332.392 83.3711 332.273 83.5537 332.12 83.7055C331.98 83.8311 331.81 83.9174 331.626 83.9555C331.442 83.9937 331.252 83.9824 331.074 83.9228C330.771 83.79 330.504 83.5862 330.296 83.3285C330.088 83.0709 329.945 82.7671 329.879 82.4426C329.454 81.1782 329.375 79.8235 329.648 78.518C329.762 78.122 329.946 77.7495 330.191 77.4181C330.048 77.1862 329.853 76.9909 329.621 76.8477C329.539 76.7951 329.447 76.7606 329.351 76.7466C329.255 76.7325 329.157 76.7392 329.064 76.7662C328.786 76.87 328.545 77.0544 328.372 77.2958C328.263 77.4181 328.182 77.5403 328.086 77.6625C329.205 79.1814 329.692 81.0748 329.444 82.945C329.309 83.882 328.752 84.7783 327.774 84.7783C327.437 84.7418 327.117 84.6081 326.855 84.3936C326.592 84.179 326.397 83.8928 326.294 83.5697C325.887 82.6616 325.684 81.6752 325.701 80.6802C325.717 79.6852 325.952 78.706 326.389 77.8119H326.321C325.995 77.4995 325.792 77.4316 325.71 77.4452C325.523 77.4986 325.354 77.6019 325.221 77.744C323.497 79.3328 322.763 82.0895 323.035 85.8918C323.296 88.7004 323.709 91.4928 324.271 94.2569C325.038 97.7309 325.493 101.267 325.629 104.822L324.271 104.808ZM327.367 79.0069C326.93 80.2954 326.993 81.7007 327.543 82.945C327.609 83.1066 327.711 83.2507 327.842 83.366C328.001 83.1839 328.096 82.9552 328.114 82.7142C328.256 81.4466 327.989 80.1668 327.353 79.0612L327.367 79.0069ZM330.857 79.1427C330.761 80.127 330.867 81.1205 331.169 82.0623C331.149 81.0992 331.04 80.14 330.843 79.197L330.857 79.1427Z" fill="#0C326F"/>
</g>
<defs>
<linearGradient id="paint0_linear" x1="249.786" y1="275.383" x2="240.606" y2="74.6478" gradientUnits="userSpaceOnUse">
<stop offset="0.01"/>
<stop offset="0.08" stop-opacity="0.69"/>
<stop offset="0.21" stop-opacity="0.32"/>
<stop offset="1" stop-opacity="0"/>
</linearGradient>
<linearGradient id="paint1_linear" x1="22379.1" y1="11805.6" x2="22290.2" y2="8511.31" gradientUnits="userSpaceOnUse">
<stop offset="0.01"/>
<stop offset="0.08" stop-opacity="0.69"/>
<stop offset="0.21" stop-opacity="0.32"/>
<stop offset="1" stop-opacity="0"/>
</linearGradient>
<linearGradient id="paint2_linear" x1="12342.9" y1="854.282" x2="12342.7" y2="1008.62" gradientUnits="userSpaceOnUse">
<stop offset="0.01"/>
<stop offset="0.08" stop-opacity="0.69"/>
<stop offset="0.21" stop-opacity="0.32"/>
<stop offset="1" stop-opacity="0"/>
</linearGradient>
<linearGradient id="paint3_linear" x1="6434.25" y1="2853.64" x2="7226.25" y2="2853.64" gradientUnits="userSpaceOnUse">
<stop offset="0.01"/>
<stop offset="0.08" stop-opacity="0.69"/>
<stop offset="0.21" stop-opacity="0.32"/>
<stop offset="1" stop-opacity="0"/>
</linearGradient>
<linearGradient id="paint4_linear" x1="1065.08" y1="12506.9" x2="1147.89" y2="12506.9" gradientUnits="userSpaceOnUse">
<stop offset="0.01"/>
<stop offset="0.08" stop-opacity="0.69"/>
<stop offset="0.21" stop-opacity="0.32"/>
<stop offset="1" stop-opacity="0"/>
</linearGradient>
<linearGradient id="paint5_linear" x1="1082.35" y1="10973.3" x2="1291.45" y2="10973.3" gradientUnits="userSpaceOnUse">
<stop offset="0.01"/>
<stop offset="0.08" stop-opacity="0.69"/>
<stop offset="0.21" stop-opacity="0.32"/>
<stop offset="1" stop-opacity="0"/>
</linearGradient>
<linearGradient id="paint6_linear" x1="13601.4" y1="4691.14" x2="14843.3" y2="10772.9" gradientUnits="userSpaceOnUse">
<stop offset="0.01"/>
<stop offset="0.08" stop-opacity="0.69"/>
<stop offset="0.21" stop-opacity="0.32"/>
<stop offset="1" stop-opacity="0"/>
</linearGradient>
<linearGradient id="paint7_linear" x1="14201.5" y1="486.251" x2="14201.2" y2="630.89" gradientUnits="userSpaceOnUse">
<stop offset="0.01"/>
<stop offset="0.08" stop-opacity="0.69"/>
<stop offset="0.21" stop-opacity="0.32"/>
<stop offset="1" stop-opacity="0"/>
</linearGradient>
<linearGradient id="paint8_linear" x1="392.998" y1="122.381" x2="291.041" y2="55.5818" gradientUnits="userSpaceOnUse">
<stop offset="0.01"/>
<stop offset="0.13" stop-opacity="0.69"/>
<stop offset="0.25" stop-opacity="0.32"/>
<stop offset="1" stop-opacity="0"/>
</linearGradient>
<linearGradient id="paint9_linear" x1="6090.89" y1="461.999" x2="6090.84" y2="530.203" gradientUnits="userSpaceOnUse">
<stop offset="0.01"/>
<stop offset="0.13" stop-opacity="0.69"/>
<stop offset="0.25" stop-opacity="0.32"/>
<stop offset="1" stop-opacity="0"/>
</linearGradient>
<linearGradient id="paint10_linear" x1="5480.29" y1="442.873" x2="5479.48" y2="505.08" gradientUnits="userSpaceOnUse">
<stop offset="0.01"/>
<stop offset="0.13" stop-opacity="0.69"/>
<stop offset="0.25" stop-opacity="0.32"/>
<stop offset="1" stop-opacity="0"/>
</linearGradient>
<linearGradient id="paint11_linear" x1="4795.88" y1="417.066" x2="4795.5" y2="460.257" gradientUnits="userSpaceOnUse">
<stop offset="0.01"/>
<stop offset="0.13" stop-opacity="0.69"/>
<stop offset="0.25" stop-opacity="0.32"/>
<stop offset="1" stop-opacity="0"/>
</linearGradient>
<clipPath id="clip0">
<rect width="445.741" height="379.35" fill="white"/>
</clipPath>
</defs>
</svg>
