<svg width="384" height="258" viewBox="0 0 384 258" fill="none" xmlns="http://www.w3.org/2000/svg">
<g clip-path="url(#clip0)">
<path opacity="0.18" d="M24.3221 221.76C-7.60535 200.673 0.317513 150.314 2.39579 134.093C3.54837 125.164 5.95336 116.234 10.9086 108.587C25.1842 86.5404 55.5869 80.9707 78.0577 66.5293C103.061 50.5486 118.979 22.9817 145.888 10.1541C160.699 3.09484 177.57 1.18311 194.096 0.338977C224.1 -1.20033 256.935 1.39001 279.233 20.7059C295.36 34.6755 303.401 55.2907 317.731 70.9569C330.364 84.7776 347.426 94.2535 360.649 107.561C380.288 127.307 390.325 157.522 379.707 182.83C369.842 206.276 354.741 221.66 346.909 223.978C321.77 231.426 266.827 232.328 240.535 234.033C212.356 235.853 186.99 231.865 158.757 231.947C115.194 232.08 55.7594 234.273 24.3584 221.727" fill="#0C326F"/>
<path d="M268.488 146.946C268.488 146.946 272.572 156.323 251.127 162.132C229.681 167.942 217.91 190.924 218.373 210.257V222.72C218.373 222.72 285.06 245.065 341.609 224.441C341.609 224.441 347.054 172.229 308.393 159.981C308.393 159.981 300.379 157.829 302.729 149.222C302.729 149.222 321.116 139.763 317.813 114.836C314.509 89.909 304.009 82.171 293.155 81.6083C249.321 79.3324 249.166 131.76 268.488 146.946Z" fill="#503A2E"/>
<path d="M346.909 224.011C346.909 224.011 347.725 187.597 341.091 175.233C335.492 164.781 321.044 162.099 308.846 158.681C308.169 158.451 307.443 158.361 306.723 158.417C305.831 158.625 305.009 159.029 304.327 159.592C297.696 164.142 289.461 166.31 281.191 165.683C272.92 165.056 265.191 161.677 259.476 156.19C244.846 160.254 233.402 160.171 225.724 172.237C218.046 184.303 214.244 207.865 215.687 221.752C215.651 221.76 281.565 246.116 346.909 224.011Z" fill="#0C326F"/>
<path d="M231.142 172.577C231.142 172.577 242.214 162.223 246.67 162.174C251.126 162.124 278.434 232.759 278.434 232.759L237.677 230.988L231.142 172.577Z" fill="url(#paint0_linear)"/>
<path d="M255.02 85.4648C257.57 77.7352 263.905 70.5683 272.535 68.7724C275.113 68.2345 277.772 68.1931 280.368 67.7379C281.947 67.4566 283.49 67.0345 285.051 66.6786C291.45 65.1394 298.186 65.1965 304.554 66.8441C310.946 68.5342 316.426 72.3225 319.937 77.4786C323.131 82.4441 324.03 88.3697 323.567 94.0965C323.104 99.8234 319.465 109.97 317.749 115.49C314.7 111.848 316.733 101.52 312.467 99.0869C309.436 97.3572 305.534 98.1434 302.003 98.6897C293.816 99.9726 285.425 99.6908 277.364 97.8621C273.543 96.9848 269.622 95.76 265.765 96.4717C262.416 97.0841 261.227 99.4262 259.412 102.025C258.124 103.821 257.352 112.783 256.254 114.53C253.695 113.702 253.196 99.5007 253.223 97.4565C253.203 93.4023 253.808 89.3655 255.02 85.4648Z" fill="#222222"/>
<path d="M320.127 113.106C320.533 112.754 321.014 112.48 321.54 112.303C322.066 112.125 322.625 112.046 323.185 112.072C323.613 112.156 324.015 112.327 324.36 112.572C324.706 112.817 324.987 113.13 325.182 113.487C325.568 114.204 325.779 114.989 325.799 115.788C326.007 118.98 324.864 122.123 322.605 124.568C321.361 125.892 319.51 127.051 317.649 126.646C317.277 126.585 316.934 126.42 316.669 126.174C316.466 125.942 316.318 125.674 316.234 125.388C315.51 122.884 315.46 120.258 316.088 117.732C316.297 116.632 316.415 115.556 317.432 114.844C318.276 114.248 319.256 113.702 320.127 113.106Z" fill="#503A2E"/>
<path d="M134.543 150.985C135.977 150.77 137.538 150.48 138.473 149.47C139.156 148.573 139.543 147.516 139.589 146.425C141.341 134.417 146.214 99.0372 133.237 78.7614C131.421 75.8648 126.738 75.1945 124.216 72.9683C118.298 67.6717 110.72 61.2497 100.247 61.3159C75.1446 61.4731 63.7186 72.8028 53.4362 93.691C47.1923 106.361 45.2683 144.737 50.4413 148.452C55.8865 152.367 70.2257 152.052 76.9779 152.665C96.1648 154.39 115.517 153.826 134.543 150.985Z" fill="#AE491D"/>
<path d="M123.88 92.0359C124.358 91.4389 124.978 90.9493 125.695 90.6041C127.809 89.6607 130.369 90.7696 132.048 92.2593C134.166 94.2967 135.64 96.819 136.313 99.5586C136.958 102.277 137.262 105.053 137.221 107.834C137.275 111.25 137.16 114.665 136.876 118.08C136.586 123.104 135.434 128.055 133.463 132.753C131.349 137.396 127.891 141.641 123.154 144.199C119.632 132.712 119.306 120.646 119.006 108.728C118.952 106.833 118.906 104.946 118.952 103.059C118.952 102.314 118.725 100.874 119.115 100.212C119.505 99.5503 120.204 99.6828 120.839 99.2441C121.847 98.5572 121.674 97.2827 121.901 96.24C122.252 94.7339 122.924 93.3054 123.88 92.0359Z" fill="url(#paint1_linear)"/>
<path d="M57.4021 116.516C56.4782 116.632 55.5977 116.947 54.8338 117.434C54.1829 117.967 53.6765 118.63 53.3545 119.371C51.9221 122.242 51.2575 125.382 51.4153 128.533C51.573 131.684 52.5487 134.755 54.262 137.495C54.262 137.495 58.5366 133.316 58.9087 132.886C60.3808 131.142 61.6864 129.287 62.8111 127.341C63.8366 125.561 69.2184 117.31 66.5048 116.292C64.7895 115.655 59.4713 116.119 57.4021 116.516Z" fill="url(#paint2_linear)"/>
<path d="M63.5462 146.946C61.5587 142.75 61.958 137.959 62.6387 133.432C63.2467 129.492 64.1271 125.437 66.6591 122.201C69.0167 119.362 72.2586 117.236 75.9614 116.102C79.6426 114.988 83.476 114.348 87.3511 114.199C92.9181 113.851 98.5074 113.934 104.059 114.447C107.966 114.689 111.801 115.528 115.403 116.93C120.304 119.116 124.21 122.8 126.439 127.341C128.636 131.879 129.382 136.891 128.59 141.799C128.411 143.911 127.58 145.933 126.194 147.633C124.57 149.151 122.52 150.233 120.268 150.761C112.1 153.145 103.442 152.963 94.9836 152.657C87.9682 152.408 80.8803 152.772 73.9739 151.531C69.9263 150.811 65.3976 150.869 63.5462 146.946Z" fill="url(#paint3_linear)"/>
<path d="M150.289 224.433C93.7039 245.065 27.0539 222.712 27.0539 222.712V210.298C26.5457 190.916 38.3438 167.926 59.8072 162.132C81.2706 156.339 79.7731 149.561 79.7731 149.561C60.4606 134.383 57.9921 79.3407 101.854 81.6248C112.744 82.1876 123.226 89.9007 126.512 114.861C129.797 139.821 108.361 150.72 108.361 150.72C108.072 151.945 108.175 153.221 108.658 154.394C109.14 155.568 109.982 156.591 111.083 157.341C112.86 158.59 114.899 159.494 117.073 159.997C155.689 172.221 150.289 224.433 150.289 224.433Z" fill="#F7AF87"/>
<path d="M78.0125 118.022C86.5615 118.022 95.2014 116.905 103.033 113.793C110.866 110.681 117.845 105.426 121.838 98.549C123.185 96.391 123.965 93.9773 124.116 91.4979C124.216 86.8138 120.957 82.4359 116.628 79.9117C112.299 77.3876 107.063 76.4772 101.935 76.2786C90.8905 75.8565 79.4827 78.6952 71.0788 85.2414C67.5965 87.9376 64.754 91.2534 62.7254 94.9859C60.6967 98.7184 59.5246 102.789 59.2808 106.949C58.8724 116.036 69.8627 118.014 78.0125 118.022Z" fill="#AE491D"/>
<path d="M155.544 224.011C155.544 224.011 151.233 194.292 144.599 181.903C138.999 171.451 129.67 162.099 117.472 158.69C116.795 158.459 116.069 158.368 115.349 158.425C114.459 158.632 113.64 159.036 112.962 159.6C106.331 164.151 98.0964 166.319 89.8259 165.692C81.5555 165.064 73.8268 161.686 68.1112 156.199C53.493 160.327 41.1299 169.348 33.5065 181.448C25.8287 193.506 22.9155 207.873 24.3222 221.76C24.3222 221.76 90.1917 246.116 155.544 224.011Z" fill="#0C326F"/>
<path d="M108.497 231.873C108.497 231.873 83.3852 234.414 78.2848 232.088C78.2848 232.088 90.9904 169.812 121.23 160.85C121.23 160.85 134.335 162.836 144.599 181.903C147.585 187.44 108.497 231.873 108.497 231.873Z" fill="url(#paint4_linear)"/>
<path d="M108.569 244.924V207.219C108.569 207.219 118.471 173.288 152.876 169.399C187.281 165.509 224.508 170.69 224.508 170.69C224.508 170.69 260.81 174.985 267.39 215.81V248.044C267.39 248.044 175.964 272.143 108.569 244.924Z" fill="#0C326F"/>
<path d="M154.128 125.619C152.658 124.792 150.852 124.221 149.236 124.792C148.568 125.031 147.968 125.408 147.485 125.892C144.935 128.375 145.08 132.24 145.888 135.55C146.337 137.408 146.944 139.232 147.703 141.004C148.019 141.826 148.475 142.597 149.055 143.288C150.87 145.25 154.046 145.514 156.842 145.217C158.493 145.043 160.336 144.588 161.089 143.23C161.348 142.709 161.496 142.147 161.525 141.575C162.278 134.88 160.554 129.161 154.128 125.619Z" fill="#F7AF87"/>
<path d="M223.338 128.334C225.398 127.026 228.075 126.017 230.389 126.927C231.295 127.344 232.065 127.97 232.623 128.742C233.182 129.515 233.51 130.406 233.575 131.33C233.679 133.176 233.326 135.021 232.54 136.726C231.743 138.915 230.496 140.946 228.864 142.709C227.209 144.477 224.867 145.592 222.33 145.821C221.068 145.91 219.805 145.67 218.687 145.127C217.57 144.585 216.646 143.763 216.023 142.759C215.407 141.416 215.122 139.967 215.188 138.513C215.075 137.396 215.214 136.269 215.596 135.203C216.595 132.927 221.223 129.674 223.338 128.334Z" fill="#F7AF87"/>
<path d="M166.77 173.048C165.964 174.311 165.492 175.728 165.391 177.186C165.451 178.044 165.678 178.884 166.062 179.669C169.384 187.117 176.263 190.874 182.897 192.612C184.888 193.178 186.956 193.487 189.041 193.531C195.304 193.531 201.493 189.608 205.259 183.277C205.479 182.953 205.619 182.588 205.668 182.21C205.647 181.717 205.494 181.237 205.223 180.811C202.881 176.21 203.308 170.276 203.925 164.872C204.019 164.425 203.988 163.964 203.834 163.531C203.742 163.367 203.613 163.221 203.457 163.103C203.301 162.985 203.121 162.897 202.927 162.844C198.87 161.288 194.514 162.257 190.221 162.108C184.322 161.909 178.605 159.434 172.697 159.426C170.065 159.426 169.865 160.32 169.493 163.324C169.166 166.678 168.246 169.962 166.77 173.048Z" fill="#F7AF87"/>
<path d="M166.843 157.564C166.843 157.564 170.246 169.73 178.496 177.699C186.745 185.669 206.276 184.146 203.971 177.029C202.028 171.062 205.668 157.564 205.668 157.564H166.843Z" fill="url(#paint5_linear)"/>
<path d="M254.965 112.651C254.058 111.823 252.996 110.996 251.716 110.921C251.216 110.922 250.723 111.025 250.272 111.223C249.821 111.421 249.425 111.708 249.112 112.063C248.487 112.785 248.072 113.639 247.905 114.546C247.475 116.744 247.666 119.005 248.458 121.117C249.366 123.699 250.99 126.314 253.749 127.299C254.224 127.508 254.75 127.602 255.276 127.571C255.802 127.541 256.311 127.387 256.753 127.126C257.347 126.583 257.716 125.869 257.797 125.106C258.877 120.232 259.049 116.276 254.965 112.651Z" fill="#503A2E"/>
<path d="M221.205 134.623C218.6 154.577 206.439 171.037 188.216 171.037C169.992 171.037 155.226 154.742 155.226 134.623C155.226 114.505 166.943 91.8207 185.175 91.8207C203.408 91.8207 226.532 93.84 221.205 134.623Z" fill="#F7AF87"/>
<path d="M150.253 128.044C149.043 120.149 148.247 112.21 147.866 104.226C147.703 100.709 147.766 96.7779 150.353 94.1876C151.034 93.6204 151.643 92.9846 152.168 92.2924C152.598 91.4045 152.835 90.4489 152.867 89.4786C153.847 81.9393 159.827 75.6414 166.689 71.3462C174.207 66.6517 182.924 63.8015 192 63.0703C194.918 62.781 197.868 62.8954 200.749 63.4097C203.645 64.0542 206.426 65.0713 209.007 66.4303C213.109 68.4579 217.057 70.9076 219.97 74.2262C222.884 77.5448 224.672 81.8566 224.054 86.069C226.054 86.849 227.85 88.0058 229.325 89.4635C230.8 90.9211 231.92 92.6467 232.613 94.5269C233.95 98.4279 234.376 102.541 233.865 106.601C232.957 116.268 228.928 126.19 220.47 132.066C220.606 125.308 218.962 118.619 215.678 112.56C214.421 110.495 213.279 108.374 212.256 106.204C211.293 103.882 210.824 101.412 210.877 98.9297C207.337 100.651 205.259 104.177 201.919 106.212C199.784 107.393 197.416 108.182 194.949 108.538C187.011 109.968 178.818 109.707 171.008 107.777C167.923 107.015 163.993 106.221 162.051 108.538C160.844 109.97 161.053 111.956 160.889 113.76C160.621 115.726 160.1 117.656 159.337 119.512L154.527 132.753C152.894 131.487 150.561 129.989 150.253 128.044Z" fill="#404040"/>
<path d="M111.229 157.697C95.9728 166.61 85.3454 151.498 84.8553 150.745C88.4382 152.573 92.4752 153.533 96.5808 153.533C100.686 153.533 104.723 152.573 108.306 150.745C108.017 151.97 108.12 153.246 108.603 154.419C109.086 155.593 109.928 156.615 111.029 157.365L111.229 157.697Z" fill="url(#paint6_linear)"/>
<path d="M254.829 121.614C254.194 120.861 253.522 119.959 253.831 119.032C254.14 118.105 255.21 117.625 255.22 116.731C255.199 116.477 255.119 116.23 254.986 116.006C254.853 115.782 254.67 115.586 254.448 115.432C253.927 114.994 253.258 114.728 252.551 114.679C252.308 114.662 252.065 114.711 251.853 114.819C251.612 114.978 251.431 115.2 251.335 115.457C250.273 117.625 250.627 120.174 251.562 122.392C251.719 122.813 251.962 123.203 252.279 123.542C252.727 123.915 253.27 124.179 253.858 124.312C254.766 124.577 255.837 124.585 256.045 123.55C256.2 122.806 255.247 122.143 254.829 121.614Z" fill="url(#paint7_linear)"/>
<path d="M319.455 121.779C320.091 121.026 320.762 120.124 320.454 119.197C320.145 118.27 319.074 117.79 319.056 116.897C319.079 116.642 319.16 116.395 319.295 116.171C319.429 115.947 319.614 115.752 319.837 115.597C320.356 115.156 321.025 114.891 321.733 114.844C321.974 114.827 322.214 114.876 322.423 114.985C322.666 115.143 322.85 115.365 322.95 115.622C324.002 117.79 323.648 120.339 322.714 122.557C322.573 123.043 322.283 123.482 321.878 123.822C321.473 124.162 320.969 124.39 320.427 124.477C319.519 124.742 318.448 124.75 318.23 123.716C318.085 122.988 319.002 122.309 319.455 121.779Z" fill="url(#paint8_linear)"/>
<path d="M221.259 137.495C222.264 137.6 223.277 137.378 224.118 136.866C224.558 136.677 224.941 136.393 225.234 136.039C225.978 134.971 225.162 133.49 225.697 132.331C225.961 131.909 226.329 131.549 226.771 131.279C227.214 131.009 227.719 130.837 228.247 130.775C228.618 130.663 229.02 130.663 229.391 130.775C229.668 130.945 229.891 131.178 230.037 131.451C230.184 131.724 230.249 132.028 230.226 132.331C230.41 134.954 229.488 137.541 227.648 139.564C226.727 140.559 225.595 141.372 224.318 141.956C223.042 142.539 221.649 142.88 220.225 142.957C220.079 142.976 219.931 142.956 219.798 142.899C219.652 142.81 219.549 142.674 219.508 142.519C219.219 141.77 219.152 140.966 219.311 140.186C219.47 139.406 219.851 138.678 220.415 138.074" fill="url(#paint9_linear)"/>
<path d="M150.117 134.077C150.534 134.714 151.378 134.963 152.077 135.335C152.776 135.719 153.358 136.258 153.767 136.902C154.177 137.546 154.401 138.274 154.419 139.018C154.472 139.509 154.35 140.002 154.073 140.425C153.795 140.848 153.375 141.179 152.876 141.368C151.868 141.625 150.861 140.971 150.153 140.268C149.239 139.339 148.534 138.255 148.08 137.078C147.625 135.9 147.429 134.653 147.503 133.407C147.558 132.579 147.948 130.494 149.4 130.924C150.561 131.297 149.554 133.217 150.117 134.077Z" fill="url(#paint10_linear)"/>
<path d="M153.393 108.778C152.422 110.005 151.847 111.456 151.732 112.966C151.549 115.147 151.634 117.34 151.986 119.503L153.357 130.75C155.063 125.371 159.092 120.679 160.009 115.142C160.3 113.379 160.245 111.542 160.862 109.837C161.134 109.092 162.75 107.255 162.151 106.527C161.552 105.799 158.112 106.378 157.214 106.61C155.725 106.954 154.39 107.712 153.393 108.778Z" fill="url(#paint11_linear)"/>
<path d="M221.159 90C221.297 89.9286 221.456 89.8996 221.613 89.9172C221.813 89.9586 221.931 90.1324 222.04 90.2979C224.127 93.5503 226.251 96.869 227.167 100.552C227.643 102.588 227.835 104.67 227.739 106.75C227.506 113.746 225.132 120.542 220.887 126.372C220.034 123.799 220.125 121.034 219.444 118.411C218.537 114.852 216.259 111.732 214.271 108.554C212.456 105.658 209.289 100.767 211.594 97.6055C213.884 94.2607 217.214 91.6131 221.159 90Z" fill="url(#paint12_linear)"/>
<path d="M268.488 146.946C268.488 146.946 273.652 152.69 284.887 152.996C297.012 153.327 302.729 149.239 302.729 149.239C302.729 149.239 297.384 159.997 284.034 162.397C275.585 163.937 266.083 160.626 264.386 156.604C264.386 156.646 269.922 151.953 268.488 146.946Z" fill="url(#paint13_linear)"/>
<path d="M167.088 169.92C167.088 169.92 170.364 184.188 182.008 187.506C193.652 190.825 203.48 180.207 203.844 173.239C204.207 166.27 206.031 168.273 206.031 168.273L208.944 169.928V196.146L186.745 193.15L164.91 198.794C164.91 198.794 159.083 174.894 162.36 168.257" fill="#0C326F"/>
</g>
<defs>
<linearGradient id="paint0_linear" x1="195.73" y1="174.761" x2="385.932" y2="282.039" gradientUnits="userSpaceOnUse">
<stop stop-opacity="0"/>
<stop offset="0.99"/>
</linearGradient>
<linearGradient id="paint1_linear" x1="116.302" y1="124.006" x2="144.5" y2="97.0364" gradientUnits="userSpaceOnUse">
<stop stop-opacity="0"/>
<stop offset="0.6" stop-opacity="0.36"/>
<stop offset="0.99"/>
</linearGradient>
<linearGradient id="paint2_linear" x1="1079.37" y1="4473.05" x2="1163.85" y2="3663.04" gradientUnits="userSpaceOnUse">
<stop stop-opacity="0"/>
<stop offset="0.99"/>
</linearGradient>
<linearGradient id="paint3_linear" x1="7182.54" y1="7054" x2="7155.43" y2="9157.74" gradientUnits="userSpaceOnUse">
<stop stop-opacity="0"/>
<stop offset="0.99"/>
</linearGradient>
<linearGradient id="paint4_linear" x1="5645.73" y1="18997.1" x2="14642.3" y2="23256.2" gradientUnits="userSpaceOnUse">
<stop stop-opacity="0"/>
<stop offset="0.99"/>
</linearGradient>
<linearGradient id="paint5_linear" x1="7621.58" y1="6775.85" x2="8465.96" y2="4951.61" gradientUnits="userSpaceOnUse">
<stop stop-opacity="0"/>
<stop offset="0.99"/>
</linearGradient>
<linearGradient id="paint6_linear" x1="2867.76" y1="2483.74" x2="2897.85" y2="2105.49" gradientUnits="userSpaceOnUse">
<stop stop-opacity="0"/>
<stop offset="0.99"/>
</linearGradient>
<linearGradient id="paint7_linear" x1="1730.25" y1="1894.26" x2="1827.48" y2="1896.92" gradientUnits="userSpaceOnUse">
<stop stop-opacity="0"/>
<stop offset="0.99"/>
</linearGradient>
<linearGradient id="paint8_linear" x1="8336.28" y1="1896.4" x2="8239.03" y2="1899.06" gradientUnits="userSpaceOnUse">
<stop stop-opacity="0"/>
<stop offset="0.99"/>
</linearGradient>
<linearGradient id="paint9_linear" x1="3046.28" y1="2666.54" x2="2728.14" y2="2539.33" gradientUnits="userSpaceOnUse">
<stop stop-opacity="0"/>
<stop offset="0.99"/>
</linearGradient>
<linearGradient id="paint10_linear" x1="1278.15" y1="2286.78" x2="1403.15" y2="2245.42" gradientUnits="userSpaceOnUse">
<stop stop-opacity="0"/>
<stop offset="0.99"/>
</linearGradient>
<linearGradient id="paint11_linear" x1="2041.47" y1="4866.84" x2="1705.36" y2="4236.2" gradientUnits="userSpaceOnUse">
<stop stop-opacity="0"/>
<stop offset="0.6" stop-opacity="0.36"/>
<stop offset="0.99"/>
</linearGradient>
<linearGradient id="paint12_linear" x1="4609.47" y1="5568.06" x2="3747.13" y2="6017.54" gradientUnits="userSpaceOnUse">
<stop stop-opacity="0"/>
<stop offset="0.6" stop-opacity="0.36"/>
<stop offset="0.99"/>
</linearGradient>
<linearGradient id="paint13_linear" x1="12486.8" y1="4067.14" x2="12361.5" y2="2695.86" gradientUnits="userSpaceOnUse">
<stop stop-opacity="0"/>
<stop offset="0.99"/>
</linearGradient>
<clipPath id="clip0">
<rect width="384" height="257.901" fill="white"/>
</clipPath>
</defs>
</svg>
