<svg width="469" height="464" viewBox="0 0 469 464" fill="none" xmlns="http://www.w3.org/2000/svg">
<path opacity="0.18" d="M468.94 195.137C468.523 180.918 465.505 166.221 457.012 155.157C446.395 141.327 429.313 135.519 414.605 126.819C390.768 112.58 372.41 89.998 362.715 62.9881C359.924 55.1052 357.813 46.7571 353.172 39.9428C340.385 21.3858 313.688 21.2601 293.338 29.407C272.988 37.554 254.892 51.9118 233.695 56.9156C209.289 62.6612 184.024 55.3566 159.057 54.0114C134.09 52.6661 105.056 60.2096 94.32 84.0596C87.5445 99.1466 89.8826 117.414 83.4291 132.69C68.8762 167.214 18.1912 170.873 3.66206 205.359C-7.25269 231.233 8.13531 261.206 27.2212 281.133C46.3071 301.061 70.1644 317.279 82.2005 342.55C95.322 369.995 95.1431 408.002 120.587 423.014C146.031 438.025 180.946 418.387 206.235 433.813C214.883 439.094 221.122 447.844 229.221 454.017C257.731 475.743 298.98 458.795 324.019 432.745C355.534 399.943 389.114 361.547 416.657 325.25C444.665 288.337 470.396 244.132 468.94 195.137Z" fill="#0C326F"/>
<path opacity="0.18" d="M234.9 424.12C235.904 423.062 236.599 421.722 236.904 420.26C236.939 418.416 236.366 416.616 235.281 415.169C231.276 408.436 226.61 402.165 221.361 396.461C220.192 395.341 219.208 394.023 218.45 392.563C217.329 390.049 217.567 386.755 215.635 384.831C206.295 386.742 196.68 390.3 190.585 398.045C189.429 399.366 188.64 400.997 188.306 402.759C188.008 405.136 189.082 407.449 190.155 409.574C191.952 413.153 193.809 416.707 195.726 420.235C197.15 423.169 198.975 425.867 201.141 428.244C202.739 429.719 204.416 431.096 206.163 432.368C208.68 434.392 210.756 437.598 213.392 439.358C216.028 441.118 218.056 439.144 220.323 437.598C225.787 433.889 230.699 429.347 234.9 424.12Z" fill="#0C326F"/>
<path d="M222.363 22.0647L219.822 20.908L173.145 38.4466L153.128 103.547L155.061 103.597L222.363 22.0647Z" fill="#0C326F"/>
<path d="M168.505 293.492C167.719 292.9 166.759 292.623 165.797 292.712C165.155 292.911 164.572 293.279 164.103 293.781C155.657 301.404 147.774 309.692 140.52 318.574C140.117 318.999 139.811 319.515 139.625 320.083C139.557 320.703 139.659 321.332 139.919 321.893C140.179 322.455 140.586 322.926 141.092 323.251C144.671 326.092 149.753 325.049 153.916 323.339C157.516 321.934 160.894 319.963 163.936 317.493C165.487 316.236 166.906 314.727 168.326 313.268C171.367 310.138 174.612 306.781 176.199 302.519C177.01 300.331 177.236 299.527 175.709 298.005C173.849 296.132 170.759 294.825 168.505 293.492Z" fill="#3E3E54"/>
<path d="M175.59 337.37C174.214 339.453 173.159 341.753 172.465 344.184C172.24 344.929 172.24 345.728 172.465 346.472C172.71 347.023 173.083 347.499 173.55 347.855C176.592 350.37 180.982 350.571 184.632 349.113C188.216 347.491 191.417 345.057 194.008 341.984C197.14 338.608 199.993 334.958 202.537 331.071C202.78 330.788 202.966 330.456 203.085 330.095C203.204 329.735 203.253 329.353 203.229 328.972C203.098 328.479 202.827 328.041 202.454 327.714C198.875 324.119 191.885 323.276 187.233 324.37C182.127 325.64 178.262 333.032 175.59 337.37Z" fill="#3E3E54"/>
<path d="M307.617 238.789C307.617 238.789 319.546 340.262 303.406 345.819C287.266 351.376 244.717 338.414 241.21 338.049C237.703 337.684 202.871 331.373 202.871 331.373L205.328 312.854C205.328 312.854 275.254 321.742 280.181 316.198C285.107 310.653 275.958 268.045 275.958 268.045L277.008 245.83L307.617 238.789Z" fill="#3E3E54"/>
<path d="M307.617 238.789C307.617 238.789 319.546 340.262 303.406 345.819C287.266 351.376 244.717 338.414 241.21 338.049C237.703 337.684 202.871 331.373 202.871 331.373L205.328 312.854C205.328 312.854 275.254 321.742 280.181 316.198C285.107 310.653 275.958 268.045 275.958 268.045L277.008 245.83L307.617 238.789Z" fill="black"/>
<path d="M240.148 261.005C240.148 261.005 229.257 314.337 222.255 313.231C215.253 312.124 177.976 297.301 177.976 297.301C177.976 297.301 170.95 304.707 171.308 311.747C171.666 318.788 221.909 353.966 233.504 348.044C245.099 342.122 262.646 302.167 279.215 261.382L284.141 250.821L240.148 261.005Z" fill="#3E3E54"/>
<path d="M240.148 261.005C240.148 261.005 229.257 314.337 222.255 313.231C215.253 312.124 177.976 297.301 177.976 297.301C177.976 297.301 170.95 304.707 171.308 311.747C171.666 318.788 221.909 353.966 233.504 348.044C245.099 342.122 262.646 302.167 279.215 261.382L284.141 250.821L240.148 261.005Z" fill="black"/>
<path d="M175.578 39.729L155.061 103.597L186.099 101.724L219.058 65.7541L222.363 22.0647L175.578 39.729Z" fill="#0C326F"/>
<path d="M175.578 39.729L155.061 103.597L186.099 101.724L219.058 65.7541L222.363 22.0647L175.578 39.729Z" fill="url(#paint0_linear)"/>
<path d="M304.659 62.699C309.113 56.7637 313.102 50.4567 316.587 43.8402C322.698 53.1618 326.739 63.8145 328.409 75.0074C328.722 76.5462 328.751 78.1343 328.492 79.6844C328.09 81.167 327.435 82.5601 326.56 83.7956C320.588 93.2054 313.328 101.632 305.016 108.802C301.808 111.581 298.36 114.259 296.285 118.043C292.145 125.587 294.495 135.003 296.69 143.377C304.706 173.928 323.685 264.739 324.544 296.472C298.825 311.911 246.482 298.848 216.899 299.904C230.605 270.346 222.231 209.194 217.436 182.98C196.835 194.119 175.578 205.459 152.508 207.66L140.019 181.685C151.566 171.878 166.632 167.943 179.061 159.406C189.69 152.102 198.016 141.692 207.833 133.205C219.571 123.072 232.943 116.698 247.317 111.958C262.368 107.195 275.952 98.3101 286.682 86.2095C293.088 78.7345 299.09 70.8852 304.659 62.699Z" fill="#0C326F"/>
<path d="M328.504 79.6341C328.107 81.1188 327.452 82.5128 326.572 83.7453C320.601 93.1706 313.341 101.614 305.028 108.802C301.82 111.568 298.36 114.259 296.285 118.043C292.145 125.587 294.495 135.003 296.69 143.377C304.706 173.928 323.685 264.739 324.544 296.472C310.229 305.046 287.768 304.832 265.509 303.123C247.699 301.765 230.057 299.439 216.899 299.904C230.593 270.346 222.231 209.206 217.436 182.98C196.823 194.119 175.578 205.46 152.508 207.66L140.019 181.685C151.566 171.878 166.632 167.943 179.061 159.407C189.69 152.102 198.016 141.679 207.821 133.218C219.571 123.072 232.955 116.698 247.317 111.958C262.347 107.181 275.906 98.2871 286.61 86.1844C293.044 78.7225 299.069 70.8814 304.659 62.699C309.111 56.7619 313.1 50.4551 316.587 43.8402C322.699 53.1568 326.74 63.8056 328.409 74.9949C328.721 76.5206 328.754 78.0955 328.504 79.6341Z" fill="url(#paint1_linear)"/>
<path d="M259.115 107.13L262.801 105.332C262.801 105.332 261.262 122.934 260.188 124.983C259.115 127.032 248.021 141.239 248.021 141.239C242.52 143.006 236.907 144.363 231.226 145.3C222.756 146.557 207.965 151.31 202.263 151.473C197.271 151.784 192.297 152.371 187.364 153.233C187.364 153.233 198.458 140.573 199.841 139.756C201.225 138.938 259.115 107.13 259.115 107.13Z" fill="url(#paint2_linear)"/>
<path d="M185.873 141.893C191.547 145.566 198.111 147.422 204.768 147.236C211.042 147.048 217.114 145.049 223.102 143.062C232.287 140.007 237.822 145.35 246.828 141.805C248.427 141.164 253.747 132.074 254.844 130.704C255.641 129.579 256.213 128.296 256.526 126.932C259.055 117.702 259.798 108.031 258.709 98.4928C258.936 100.467 239.623 109.066 237.381 110.173C231.837 112.844 226.145 115.157 220.335 117.1C206.744 121.525 194.734 130.165 185.873 141.893Z" fill="#0C326F"/>
<path d="M185.873 141.893C191.547 145.566 198.111 147.422 204.768 147.236C211.042 147.048 217.114 145.049 223.102 143.062C232.287 140.007 237.822 145.35 246.828 141.805C248.427 141.164 253.747 132.074 254.844 130.704C255.641 129.579 256.213 128.296 256.526 126.932C259.055 117.702 259.798 108.031 258.709 98.4928C258.936 100.467 239.623 109.066 237.381 110.173C231.837 112.844 226.145 115.157 220.335 117.1C206.744 121.525 194.734 130.165 185.873 141.893Z" fill="#E7EBF1"/>
<path d="M228.351 113.102C229.37 115.327 229.723 117.826 229.365 120.268C228.798 122.442 227.968 124.529 226.895 126.479C225.823 128.45 225.447 130.757 225.834 132.992C226.14 133.991 226.641 134.912 227.304 135.696C227.968 136.48 228.779 137.109 229.687 137.543C231.506 138.392 233.444 138.927 235.424 139.127C236.244 139.275 237.074 139.343 237.906 139.328C239.867 139.125 241.756 138.436 243.417 137.317C246.371 135.758 248.909 133.446 250.801 130.59C251.73 129.153 252.294 127.489 252.438 125.756C252.582 124.024 252.301 122.281 251.624 120.696C250.838 119.131 249.578 117.887 248.045 117.163C246.554 116.446 244.8 116.245 243.56 115.126C242.816 114.359 242.217 113.45 241.794 112.448L237.822 104.389C237.593 103.832 237.246 103.338 236.808 102.943C236.337 102.616 235.786 102.437 235.222 102.428C232.061 102.164 229.126 103.811 226.585 105.584C224.999 106.678 224.808 107.067 225.893 108.727C226.84 110.102 227.662 111.566 228.351 113.102Z" fill="#503A2E"/>
<path d="M239.039 84.6631C241.317 89.2772 242.2 94.9599 240.232 99.7501C239.076 102.265 237.295 104.402 235.079 105.936C234.065 106.719 232.92 107.291 231.703 107.62C230.214 107.884 228.694 107.884 227.206 107.62C224.295 107.431 221.424 106.813 218.677 105.785C217.144 105.082 215.688 104.205 214.335 103.17C213.79 102.68 213.123 102.366 212.414 102.265C212.008 102.291 211.606 102.376 211.221 102.516C210.185 102.804 209.101 102.842 208.048 102.629C207.396 102.551 206.773 102.298 206.238 101.896C205.704 101.493 205.276 100.954 204.994 100.328C204.541 99.0711 205.46 97.2607 206.76 97.3864C203.945 95.8274 202.299 92.6843 200.796 89.7298C200.281 88.8333 199.914 87.8513 199.71 86.8255C199.603 85.2871 199.874 83.7456 200.497 82.3497C201.125 80.4709 201.962 78.6772 202.99 77.0064C205.376 73.4484 209.158 71.2231 213.046 69.7773C217.15 68.2686 222.088 67.4011 226.168 69.3749C227.538 70.2588 228.75 71.3909 229.746 72.7192C231.381 74.4542 233.015 76.1892 234.518 78.0374C236.264 80.0537 237.781 82.2772 239.039 84.6631Z" fill="url(#paint3_linear)"/>
<path d="M213.416 75.7241C210.634 77.0072 208.229 79.0518 206.45 81.6457C205.609 83.226 204.971 84.9171 204.553 86.6747C203.98 88.1088 203.925 89.7142 204.398 91.1882C204.793 91.9107 205.32 92.5432 205.949 93.049L211.985 98.6311C209.146 96.0035 204.732 97.487 201.046 96.6573C199.595 96.2842 198.239 95.5796 197.074 94.5933C195.909 93.6069 194.964 92.363 194.306 90.9493C192.988 88.0862 192.646 84.8313 193.34 81.7337C193.541 80.9674 193.685 80.1854 193.769 79.3952C193.853 78.138 193.459 76.7927 193.447 75.4726C193.447 72.3924 195.559 69.7899 197.742 67.7405C199.925 65.6912 202.406 63.7425 203.551 60.9011C203.908 59.6113 204.417 58.3738 205.066 57.2174C205.77 56.2744 210.446 56.0356 211.46 55.4824C213.845 54.2251 212.486 52.641 214.824 51.3837C215.229 51.1157 215.694 50.964 216.172 50.9437C216.784 51.0265 217.35 51.3336 217.77 51.8112C220.549 54.3257 225.488 60.109 225.035 64.3837C224.343 70.4813 217.877 73.3479 213.416 75.7241Z" fill="#222222"/>
<path d="M200.843 96.0789C199.006 97.047 196.883 95.7646 195.201 94.5325L186.672 88.2463C185.94 87.7793 185.304 87.1639 184.799 86.4358C184.434 85.7043 184.203 84.9066 184.119 84.0848C183.114 78.4281 183.496 72.5947 185.229 67.1371C186.113 64.4225 187.542 61.9412 189.42 59.8625C191.297 57.7838 193.579 56.1568 196.108 55.0926C196.859 54.816 200.127 52.0375 200.879 52.1381C201.63 52.2387 206.116 54.4891 211.424 55.4698C212.498 55.671 203.289 61.756 199.996 74.6051C196.811 87.1776 199.889 88.2085 200.843 96.0789Z" fill="#0C326F"/>
<path d="M200.843 96.0789C199.006 97.047 196.883 95.7646 195.201 94.5325L186.672 88.2463C185.94 87.7793 185.304 87.1639 184.799 86.4358C184.434 85.7043 184.203 84.9066 184.119 84.0848C183.114 78.4281 183.496 72.5947 185.229 67.1371C186.113 64.4225 187.542 61.9412 189.42 59.8625C191.297 57.7838 193.579 56.1568 196.108 55.0926C196.859 54.816 200.127 52.0375 200.879 52.1381C204.469 52.9664 207.994 54.0802 211.424 55.4698C212.438 55.8847 203.289 61.756 199.996 74.6051C196.811 87.1776 199.889 88.2085 200.843 96.0789Z" fill="url(#paint4_linear)"/>
<path d="M160.262 87.5422C159.737 91.9677 158.651 96.3429 158.687 100.768C158.771 112.172 162.493 123.173 163.84 134.488C164.181 136.589 164.181 138.736 163.84 140.837C163.351 143.238 162.099 145.376 161.276 147.676C159.809 151.788 159.749 156.289 159.701 160.676L162.242 155.446L162.516 157.709C162.6 157.307 163.316 157.797 162.994 158.036C163.536 156.928 163.775 155.683 163.685 154.44C163.956 156.016 164.012 157.625 163.852 159.218C165.421 154.071 166.398 148.744 166.763 143.351C166.942 140.837 166.703 137.82 164.604 136.638C164.333 132.221 163.718 127.835 162.767 123.525C161.455 118.735 159.069 106.967 159.606 97.7888C159.907 92.3957 160.787 87.056 162.23 81.872C162.23 81.872 160.93 81.9223 160.262 87.5422Z" fill="#0C326F"/>
<path d="M119.752 197.979C117.76 197.476 115.696 196.722 113.716 197.262C111.736 197.803 110.138 200.506 111.485 202.178C112.511 203.435 114.957 204.039 114.551 205.673C114.409 206.098 114.151 206.469 113.812 206.742C111.295 209.03 107.847 209.583 104.722 210.941C101.597 212.299 98.6383 215.341 99.3182 218.774C101.754 221.313 104.576 223.404 107.668 224.959C109.766 225.829 112.02 226.2 114.27 226.046C116.52 225.892 118.709 225.216 120.682 224.067C126.05 220.886 129.033 214.637 133.804 210.501C137.597 207.207 142.369 205.384 146.365 202.367C146.723 202.09 148.751 201.512 148.918 201.109C148.999 200.689 148.966 200.253 148.822 199.852C148.071 197.023 145.828 191.416 143.705 189.668C136.977 196.068 129.176 200.33 119.752 197.979Z" fill="url(#paint5_linear)"/>
<path d="M324.448 59.2792C329.136 49.8876 326.13 37.906 330.21 28.2504C331.641 24.8432 333.884 21.9013 335.423 18.557C336.961 15.2127 337.737 11.1266 336.103 7.83265C335.535 6.80444 334.858 5.84707 334.087 4.97869L330.83 0.930357C330.554 0.47897 330.129 0.151827 329.637 0.0125655C328.933 -0.0754418 328.361 0.603472 328.015 1.26981C326.715 3.78431 326.822 6.82685 326.452 9.6808C326.082 12.5348 324.937 15.6779 322.373 16.6837C321.569 13.9483 319.778 11.6548 317.386 10.2969C316.993 15.879 321.239 20.7823 321.526 26.3645C321.546 28.7812 321.141 31.181 320.333 33.4428C319.239 37.0417 317.933 40.5647 316.42 43.9911C317.613 47.1468 319.009 50.5791 320.178 53.7348C320.648 55.2057 321.315 56.5984 322.158 57.8711C322.802 58.7386 323.542 58.7386 324.448 59.2792Z" fill="url(#paint6_linear)"/>
<path opacity="0.18" d="M393.515 247.012C397.189 235.404 402.133 224.286 408.247 213.883C411.003 209.194 414.128 204.064 413.293 198.62C396.975 190.708 380.803 182.477 364.779 173.928C364.087 173.551 351.562 194.785 350.644 196.935C347.924 203.31 348.389 208.414 352.54 213.883C362.715 227.298 379.845 237.922 393.515 247.012Z" fill="#0C326F"/>
<path d="M397.368 242.951C401.047 231.345 405.991 220.227 412.1 209.822C414.856 205.133 417.981 200.003 417.146 194.559C400.82 186.672 384.664 178.424 368.68 169.816C367.988 169.439 355.463 190.674 354.544 192.824C351.825 199.198 352.29 204.303 356.441 209.772C366.616 223.237 383.698 233.861 397.368 242.951Z" fill="white"/>
<path opacity="0.18" d="M111.02 260.087C107.358 257.384 88.3558 288.337 86.3756 291.43C82.9401 288.526 80.6021 283.434 77.2144 279.977C73.5403 276.205 70.3435 274.017 70.4747 268.108C70.6655 258.742 81.5445 245.88 87.2464 239.619C95.3221 246.144 102.551 253.876 111.02 260.087Z" fill="#0C326F"/>
<path d="M109.314 256.026C105.652 253.335 86.6499 284.276 84.6698 287.369C81.2343 284.465 78.8963 279.373 75.5086 275.916C71.8345 272.144 68.6376 269.969 68.7689 264.06C68.9597 254.681 79.8387 241.832 85.5406 235.558C93.6282 242.083 100.857 249.815 109.314 256.026Z" fill="white"/>
<path d="M229.615 418.651C229.624 420.095 229.16 421.498 228.303 422.624C227.471 423.753 226.527 424.785 225.488 425.704L195.952 453.225C193.054 455.928 189.988 458.707 186.29 459.826C178.215 462.252 170.222 456.23 163.757 450.573C158.234 445.757 152.592 440.779 148.166 434.907C146.045 432.137 144.25 429.106 142.822 425.88C141.558 422.989 167.646 407.21 170.115 405.764L205.03 384.504L227.027 413.295C228.267 414.842 229.544 416.577 229.615 418.651Z" fill="white"/>
<path d="M228.303 422.624C227.471 423.753 226.527 424.785 225.488 425.704L195.952 453.225C193.054 455.928 189.988 458.707 186.29 459.826C178.214 462.252 170.222 456.23 163.757 450.573C158.234 445.757 152.592 440.779 148.166 434.907C150.134 430.23 155.395 426.836 160.095 423.315C171.379 414.804 182.759 406.217 195.38 400.17C195.576 400.018 195.801 399.912 196.039 399.858C196.276 399.804 196.522 399.803 196.761 399.855C196.999 399.907 197.224 400.011 197.422 400.161C197.62 400.31 197.786 400.502 197.909 400.723C202.561 405.953 207.332 411.061 212.223 416.049C213.927 417.943 215.874 419.577 218.009 420.902C219.081 421.555 220.268 421.974 221.498 422.132C222.728 422.289 223.976 422.183 225.166 421.819C226.227 421.442 227.683 420.939 228.196 421.983C228.288 422.182 228.325 422.404 228.303 422.624Z" fill="#0C326F"/>
<path d="M228.303 422.624C227.471 423.753 226.527 424.785 225.488 425.704L195.952 453.225C193.054 455.928 189.988 458.707 186.29 459.826C178.214 462.252 170.222 456.23 163.757 450.573C158.234 445.757 152.592 440.779 148.166 434.907C150.134 430.23 155.395 426.836 160.095 423.315C171.379 414.804 182.759 406.217 195.38 400.17C195.576 400.018 195.801 399.912 196.039 399.858C196.276 399.804 196.522 399.803 196.761 399.855C196.999 399.907 197.224 400.011 197.422 400.161C197.62 400.31 197.786 400.502 197.909 400.723C202.561 405.953 207.332 411.061 212.223 416.049C213.927 417.943 215.874 419.577 218.009 420.902C219.081 421.555 220.268 421.974 221.498 422.132C222.728 422.289 223.976 422.183 225.166 421.819C226.227 421.442 227.683 420.939 228.196 421.983C228.288 422.182 228.325 422.404 228.303 422.624Z" fill="url(#paint7_linear)"/>
<path d="M194.748 395.04L197.742 393.934C197.919 393.842 198.119 393.812 198.314 393.846C198.491 393.933 198.64 394.073 198.744 394.248C202.531 399.502 206.868 404.289 211.674 408.518C212.077 408.799 212.389 409.202 212.569 409.674" stroke="#0C326F" stroke-width="1.17" stroke-miterlimit="10"/>
<path d="M204.434 393.33C206.946 397.147 209.776 400.719 212.891 404.004L223.15 415.319" stroke="#0C326F" stroke-width="1.17" stroke-miterlimit="10"/>
<path d="M265.509 303.122C247.699 301.765 230.057 299.439 216.899 299.904C230.593 270.346 222.231 209.206 217.436 182.98L224.915 176.631C224.915 176.631 234.005 233.295 236.152 244.987C238.299 256.68 244.788 289.481 254.045 294.674C261.739 298.974 264.733 302.167 265.509 303.122Z" fill="url(#paint8_linear)"/>
<defs>
<linearGradient id="paint0_linear" x1="9822.93" y1="2147.62" x2="13627.7" y2="7306.98" gradientUnits="userSpaceOnUse">
<stop stop-opacity="0"/>
<stop offset="0.99"/>
</linearGradient>
<linearGradient id="paint1_linear" x1="52590.7" y1="22954.1" x2="-1643.64" y2="73718.8" gradientUnits="userSpaceOnUse">
<stop stop-opacity="0"/>
<stop offset="0.99"/>
</linearGradient>
<linearGradient id="paint2_linear" x1="14233.7" y1="4681.33" x2="15770.5" y2="8696.91" gradientUnits="userSpaceOnUse">
<stop stop-opacity="0"/>
<stop offset="0.99"/>
</linearGradient>
<linearGradient id="paint3_linear" x1="7290.22" y1="2905.66" x2="8743.63" y2="2905.66" gradientUnits="userSpaceOnUse">
<stop stop-color="#503A2E"/>
<stop offset="0.42" stop-color="#EAD4D1"/>
<stop offset="1" stop-color="#F0E9CB"/>
</linearGradient>
<linearGradient id="paint4_linear" x1="4982.33" y1="1803.55" x2="4323.63" y2="3517.25" gradientUnits="userSpaceOnUse">
<stop stop-opacity="0"/>
<stop offset="0.99"/>
</linearGradient>
<linearGradient id="paint5_linear" x1="4382.44" y1="6270.03" x2="6459.14" y2="6270.03" gradientUnits="userSpaceOnUse">
<stop stop-color="#503A2E"/>
<stop offset="0.42" stop-color="#EAD4D1"/>
<stop offset="1" stop-color="#F0E9CB"/>
</linearGradient>
<linearGradient id="paint6_linear" x1="5839.34" y1="1495.5" x2="6194.76" y2="1495.5" gradientUnits="userSpaceOnUse">
<stop stop-color="#503A2E"/>
<stop offset="0.42" stop-color="#EAD4D1"/>
<stop offset="1" stop-color="#F0E9CB"/>
</linearGradient>
<linearGradient id="paint7_linear" x1="12721.8" y1="20801.9" x2="13912.4" y2="23110.8" gradientUnits="userSpaceOnUse">
<stop stop-opacity="0"/>
<stop offset="0.99"/>
</linearGradient>
<linearGradient id="paint8_linear" x1="7556.43" y1="16563.6" x2="33719.9" y2="33249.9" gradientUnits="userSpaceOnUse">
<stop stop-opacity="0"/>
<stop offset="0.99"/>
</linearGradient>
</defs>
</svg>
